# xmcd
# 
# Track frame offsets:
#     150
#     16486
#     29467
#     43172
#     54219
#     68215
#     83315
#     100056
#     115119
#     128919
#     147357
#     154824
#     173573
#     190060
# 
# Disc length: 2624
# 
# Revision: 2
# Processed by: cddbd v1.5.2PL0 Copyright (c) Steve Scherf et al.
# Submitted via: fre:ac v1.0.31
# 
DISCID=ae0a3e0e
DTITLE=Marty Stuart - Ghost Train (The Studio B Sessions)
DYEAR=2010
DGENRE=Country
TTITLE0=Branded
TTITLE1=Country Boy Rock and Roll (With Kenny Vaughan)
TTITLE2=Drifting Apart
TTITLE3=Bridge Washed Out
TTITLE4=A World Without You
TTITLE5=Hummingbyrd
TTITLE6=Hangman
TTITLE7=Ghost Train Four-Oh-Ten
TTITLE8=Hard Working Man
TTITLE9=I Run to You (With Connie Smith)
TTITLE10=Crazy Arms (Featuring Ralph Mooney)
TTITLE11=Porter Wagoner's Grave
TTITLE12=Little Heartbreaker (The Likes of You)
TTITLE13=Mississippi Railroad Blues
EXTD=
EXTT0=
EXTT1=
EXTT2=
EXTT3=
EXTT4=
EXTT5=
EXTT6=
EXTT7=
EXTT8=
EXTT9=
EXTT10=
EXTT11=
EXTT12=
EXTT13=
PLAYORDER=
